<?xml version="1.0" standalone="no"?>
<!DOCTYPE svg PUBLIC "-//W3C//DTD SVG 20010904//EN"
 "http://www.w3.org/TR/2001/REC-SVG-20010904/DTD/svg10.dtd">
<svg version="1.0" xmlns="http://www.w3.org/2000/svg"
 width="512.000000pt" height="512.000000pt" viewBox="0 0 512.000000 512.000000"
 preserveAspectRatio="xMidYMid meet">

<g transform="translate(0.000000,512.000000) scale(0.100000,-0.100000)"
fill="#000000" stroke="none">
<path d="M1640 4470 c-492 -313 -901 -577 -907 -587 -29 -38 -15 -67 117 -244
72 -96 138 -180 147 -186 23 -17 65 -16 89 2 10 8 22 15 27 15 4 0 7 -304 7
-675 l0 -675 -22 5 c-88 20 -236 28 -600 32 l-418 5 0 -81 0 -81 348 0 c383 0
506 -8 722 -46 338 -61 692 -196 973 -374 l99 -62 406 37 c224 21 464 38 534
39 l127 1 32 -31 c23 -23 32 -43 36 -75 7 -75 -16 -99 -169 -173 -293 -143
-543 -196 -923 -196 l-185 0 0 -80 0 -80 184 0 c400 0 688 62 1001 214 108 53
140 74 178 116 43 48 77 122 77 170 0 12 24 25 83 44 114 39 285 123 392 193
50 33 182 134 295 224 113 90 221 174 240 186 153 94 377 50 347 -68 -10 -37
-948 -1187 -1013 -1240 -30 -25 -76 -56 -102 -68 -73 -33 -1530 -468 -1616
-482 -89 -14 -203 -8 -302 17 -47 12 -244 105 -624 294 -358 178 -580 283
-625 295 -56 15 -115 20 -292 23 l-223 4 0 -81 0 -81 193 0 c158 0 208 -4 269
-19 54 -14 218 -91 588 -276 282 -141 535 -266 564 -277 143 -58 320 -80 467
-59 121 18 1593 460 1686 507 40 20 100 61 134 92 59 54 991 1190 1030 1257
27 44 35 124 19 180 -19 68 -87 139 -158 165 -120 45 -265 34 -391 -30 -33
-16 -154 -104 -268 -196 l-208 -166 -3 783 c-1 430 0 784 2 787 3 2 15 -3 28
-12 27 -19 68 -21 91 -3 9 6 75 90 147 186 136 183 148 208 113 249 -32 36
-1798 1152 -1824 1152 -14 0 -377 -225 -919 -570z m1732 -121 c441 -281 809
-516 816 -523 10 -10 -2 -31 -55 -104 -38 -50 -73 -90 -79 -87 -7 2 -337 210
-735 461 -398 252 -736 460 -751 462 -23 3 -161 -80 -759 -457 -402 -254 -736
-464 -742 -466 -18 -6 -150 176 -137 189 18 18 1615 1034 1627 1035 6 1 373
-229 815 -510z m-167 -370 l635 -402 -2 -896 -3 -896 -74 -39 c-40 -21 -121
-56 -179 -78 l-105 -39 -27 33 c-15 19 -52 47 -81 63 l-54 30 -160 -2 c-90 -1
-319 -17 -525 -36 l-365 -35 -116 69 c-246 146 -594 285 -836 334 l-33 7 0
742 0 742 633 401 c347 221 637 401 644 402 7 1 298 -180 648 -400z"/>
<path d="M1927 3665 c-60 -23 -93 -51 -147 -129 -56 -81 -84 -105 -167 -141
-73 -32 -119 -76 -149 -140 -39 -82 -33 -124 42 -314 76 -194 98 -231 157
-266 l44 -25 12 -93 c34 -259 168 -455 385 -563 127 -62 200 -74 457 -74 255
0 325 12 459 77 77 38 109 61 176 127 124 125 185 260 209 468 6 54 8 58 51
83 60 35 82 72 160 269 61 156 66 174 61 226 -9 105 -65 177 -177 229 -81 37
-104 57 -173 152 -62 85 -114 119 -197 127 -52 5 -130 -17 -168 -46 -23 -18
-26 -18 -102 4 -198 58 -402 58 -600 0 -76 -22 -78 -22 -103 -4 -63 46 -158
59 -230 33z m164 -190 c47 -42 63 -43 160 -10 93 32 222 55 309 55 87 0 216
-23 309 -55 97 -33 114 -32 159 9 73 66 120 57 181 -32 54 -81 128 -144 214
-185 72 -34 97 -62 97 -106 0 -32 -120 -316 -141 -333 -29 -24 -63 -22 -93 5
-23 20 -29 42 -55 201 -17 98 -32 181 -35 183 -2 3 -39 -1 -80 -8 l-76 -12 5
-31 c3 -17 19 -107 35 -200 24 -143 33 -175 57 -210 26 -37 76 -79 105 -88 17
-6 -15 -192 -45 -259 -69 -154 -204 -265 -372 -305 -85 -20 -447 -19 -533 1
-163 39 -301 152 -368 303 -21 46 -54 194 -54 242 0 10 13 23 30 30 36 15 85
68 104 114 7 18 25 104 40 192 14 87 29 171 32 185 5 26 3 26 -71 38 -42 7
-79 11 -81 8 -3 -2 -18 -85 -35 -183 -26 -159 -32 -181 -55 -201 -30 -27 -64
-29 -93 -5 -21 17 -141 301 -141 333 0 44 25 72 97 106 86 41 160 104 214 185
23 33 50 63 62 68 35 15 77 3 118 -35z"/>
<path d="M2175 3186 c-101 -44 -125 -178 -46 -257 112 -113 296 -12 267 146
-18 94 -131 151 -221 111z"/>
<path d="M2815 3186 c-101 -44 -125 -178 -46 -257 112 -113 296 -12 267 146
-18 94 -131 151 -221 111z"/>
<path d="M2475 2871 c-99 -26 -150 -77 -150 -151 0 -61 26 -95 96 -128 80 -37
79 -57 -1 -137 -50 -50 -63 -58 -78 -49 -9 6 -18 25 -20 43 l-3 31 -80 0 -79
0 0 -42 c1 -138 141 -235 265 -184 19 8 57 36 85 62 l50 47 50 -47 c28 -26 66
-54 85 -62 124 -51 264 46 265 184 l0 42 -79 0 -80 0 -3 -31 c-2 -18 -11 -37
-20 -43 -15 -9 -28 -1 -78 49 -80 80 -81 100 -1 137 70 33 96 67 96 128 0 92
-79 149 -215 156 -41 2 -88 0 -105 -5z"/>
</g>
</svg>
